<?xml version="1.0" encoding="utf-8"?>
<!-- Generator: Adobe Illustrator 18.0.0, SVG Export Plug-In . SVG Version: 6.00 Build 0)  -->
<!DOCTYPE svg PUBLIC "-//W3C//DTD SVG 1.1//EN" "http://www.w3.org/Graphics/SVG/1.1/DTD/svg11.dtd">

<svg version="1.1" id="图层_1" xmlns="http://www.w3.org/2000/svg" xmlns:xlink="http://www.w3.org/1999/xlink" x="0px" y="0px"
	 viewBox="0 0 250 372" enable-background="new 0 0 250 372" xml:space="preserve">
<g>
	<path fill="none" stroke="#FFFFFF" stroke-width="22" stroke-linecap="round" stroke-miterlimit="10" d="M106,13.9
		C69.4,36.5,45,76.9,45,123v126c0,17.7,14.3,32,32,32s32-14.3,32-32v-63"/>
	<path fill="none" stroke="#FFFFFF" stroke-width="22" stroke-linecap="round" stroke-miterlimit="10" d="M77,345c53,0,96-43,96-96
		V123"/>
	<path fill="none" stroke="#FFFFFF" stroke-width="22" stroke-linecap="round" stroke-miterlimit="10" d="M144,358.1
		c36.6-22.5,61-63,61-109.1V123c0-17.7-14.3-32-32-32s-32,14.3-32,32v63"/>
	<path fill="none" stroke="#FFFFFF" stroke-width="22" stroke-linecap="round" stroke-miterlimit="10" d="M173,27c-53,0-96,43-96,96
		v126"/>
	<path fill="none" stroke="#FFFFFF" stroke-width="22" stroke-linecap="round" stroke-miterlimit="10" d="M237,249v-19V123
		c0-35.3-28.7-64-64-64s-64,28.7-64,64v63"/>
	<path fill="none" stroke="#FFFFFF" stroke-width="22" stroke-linecap="round" stroke-miterlimit="10" d="M13,163v21v65
		c0,35.3,28.7,64,64,64s64-28.7,64-64v-63"/>
</g>
</svg>
